<mxfile host="Electron" modified="2024-04-08T13:16:19.013Z" agent="Mozilla/5.0 (Macintosh; Intel Mac OS X 10_15_7) AppleWebKit/537.36 (KHTML, like Gecko) draw.io/24.1.0 Chrome/120.0.6099.109 Electron/28.1.0 Safari/537.36" etag="-G85TsXjwVP_T2VNfjs8" version="24.1.0" type="device">
  <diagram name="Page-1" id="3nZyRg-4q7B6HPkiwZXq">
    <mxGraphModel dx="931" dy="711" grid="1" gridSize="10" guides="1" tooltips="1" connect="1" arrows="1" fold="1" page="1" pageScale="1" pageWidth="1169" pageHeight="827" math="0" shadow="0">
      <root>
        <mxCell id="0" />
        <mxCell id="1" parent="0" />
        <mxCell id="X6oLMusXCF2Cn_tLDwSJ-1" value="Start&lt;br&gt;Screen" style="rounded=1;whiteSpace=wrap;html=1;" vertex="1" parent="1">
          <mxGeometry x="160" y="70" width="110" height="110" as="geometry" />
        </mxCell>
        <mxCell id="X6oLMusXCF2Cn_tLDwSJ-2" value="MyCollection Screen" style="rounded=1;whiteSpace=wrap;html=1;" vertex="1" parent="1">
          <mxGeometry x="400" y="70" width="110" height="110" as="geometry" />
        </mxCell>
        <mxCell id="X6oLMusXCF2Cn_tLDwSJ-3" value="" style="endArrow=classic;html=1;rounded=0;" edge="1" parent="1" source="X6oLMusXCF2Cn_tLDwSJ-1" target="X6oLMusXCF2Cn_tLDwSJ-2">
          <mxGeometry width="50" height="50" relative="1" as="geometry">
            <mxPoint x="350" y="230" as="sourcePoint" />
            <mxPoint x="400" y="180" as="targetPoint" />
          </mxGeometry>
        </mxCell>
        <mxCell id="X6oLMusXCF2Cn_tLDwSJ-4" value="Home&lt;br&gt;Tab" style="rounded=1;whiteSpace=wrap;html=1;" vertex="1" parent="1">
          <mxGeometry x="320" y="240" width="70" height="70" as="geometry" />
        </mxCell>
        <mxCell id="X6oLMusXCF2Cn_tLDwSJ-5" value="Explore&lt;br&gt;Tab" style="rounded=1;whiteSpace=wrap;html=1;" vertex="1" parent="1">
          <mxGeometry x="430" y="240" width="70" height="70" as="geometry" />
        </mxCell>
        <mxCell id="X6oLMusXCF2Cn_tLDwSJ-6" value="Find Game&lt;br&gt;Tab" style="rounded=1;whiteSpace=wrap;html=1;" vertex="1" parent="1">
          <mxGeometry x="530" y="240" width="70" height="70" as="geometry" />
        </mxCell>
        <mxCell id="X6oLMusXCF2Cn_tLDwSJ-7" value="" style="endArrow=classic;html=1;rounded=0;" edge="1" parent="1" source="X6oLMusXCF2Cn_tLDwSJ-2" target="X6oLMusXCF2Cn_tLDwSJ-4">
          <mxGeometry width="50" height="50" relative="1" as="geometry">
            <mxPoint x="280" y="135" as="sourcePoint" />
            <mxPoint x="410" y="135" as="targetPoint" />
          </mxGeometry>
        </mxCell>
        <mxCell id="X6oLMusXCF2Cn_tLDwSJ-8" value="" style="endArrow=classic;html=1;rounded=0;" edge="1" parent="1" source="X6oLMusXCF2Cn_tLDwSJ-2" target="X6oLMusXCF2Cn_tLDwSJ-5">
          <mxGeometry width="50" height="50" relative="1" as="geometry">
            <mxPoint x="428" y="190" as="sourcePoint" />
            <mxPoint x="388" y="250" as="targetPoint" />
          </mxGeometry>
        </mxCell>
        <mxCell id="X6oLMusXCF2Cn_tLDwSJ-9" value="" style="endArrow=classic;html=1;rounded=0;exitX=0.75;exitY=1;exitDx=0;exitDy=0;" edge="1" parent="1" source="X6oLMusXCF2Cn_tLDwSJ-2" target="X6oLMusXCF2Cn_tLDwSJ-6">
          <mxGeometry width="50" height="50" relative="1" as="geometry">
            <mxPoint x="465" y="190" as="sourcePoint" />
            <mxPoint x="465" y="250" as="targetPoint" />
          </mxGeometry>
        </mxCell>
      </root>
    </mxGraphModel>
  </diagram>
</mxfile>
